<svg width="200" height="200" shape-rendering="crispEdges" xmlns="http://www.w3.org/2000/svg" viewBox="0 0 41 41"><defs><!----></defs><rect width="100%" height="100%" fill="#fff"></rect><path fill="#000" d="M0 0h7v1H0zM8 0h6v1H8zM15 0h1v1H15zM19 0h2v1H19zM22 0h1v1H22zM24 0h1v1H24zM27 0h3v1H27zM31 0h2v1H31zM34,0 h7v1H34zM0 1h1v1H0zM6 1h1v1H6zM10 1h2v1H10zM15 1h1v1H15zM18 1h2v1H18zM21 1h1v1H21zM23 1h2v1H23zM27 1h1v1H27zM30 1h1v1H30zM34 1h1v1H34zM40,1 h1v1H40zM0 2h1v1H0zM2 2h3v1H2zM6 2h1v1H6zM8 2h1v1H8zM10 2h1v1H10zM12 2h1v1H12zM15 2h2v1H15zM20 2h2v1H20zM23 2h1v1H23zM26 2h1v1H26zM30 2h1v1H30zM34 2h1v1H34zM36 2h3v1H36zM40,2 h1v1H40zM0 3h1v1H0zM2 3h3v1H2zM6 3h1v1H6zM8 3h1v1H8zM11 3h2v1H11zM15 3h2v1H15zM18 3h1v1H18zM22 3h1v1H22zM24 3h2v1H24zM27 3h5v1H27zM34 3h1v1H34zM36 3h3v1H36zM40,3 h1v1H40zM0 4h1v1H0zM2 4h3v1H2zM6 4h1v1H6zM10 4h1v1H10zM12 4h1v1H12zM17 4h3v1H17zM21 4h2v1H21zM24 4h1v1H24zM27 4h1v1H27zM30 4h1v1H30zM34 4h1v1H34zM36 4h3v1H36zM40,4 h1v1H40zM0 5h1v1H0zM6 5h1v1H6zM8 5h5v1H8zM14 5h3v1H14zM18 5h1v1H18zM20 5h5v1H20zM27 5h5v1H27zM34 5h1v1H34zM40,5 h1v1H40zM0 6h7v1H0zM8 6h1v1H8zM10 6h1v1H10zM12 6h1v1H12zM14 6h1v1H14zM16 6h1v1H16zM18 6h1v1H18zM20 6h1v1H20zM22 6h1v1H22zM24 6h1v1H24zM26 6h1v1H26zM28 6h1v1H28zM30 6h1v1H30zM32 6h1v1H32zM34,6 h7v1H34zM8 7h1v1H8zM11 7h2v1H11zM15 7h2v1H15zM23 7h1v1H23zM26 7h2v1H26zM29 7h2v1H29zM32 7h1v1H32zM1 8h1v1H1zM3 8h1v1H3zM5 8h4v1H5zM10 8h1v1H10zM13 8h1v1H13zM15 8h2v1H15zM19 8h4v1H19zM24 8h2v1H24zM27 8h2v1H27zM31 8h1v1H31zM33 8h3v1H33zM37 8h2v1H37zM40,8 h1v1H40zM1 9h5v1H1zM7 9h1v1H7zM9 9h1v1H9zM11 9h1v1H11zM15 9h1v1H15zM22 9h4v1H22zM28 9h2v1H28zM32 9h3v1H32zM37 9h2v1H37zM3 10h6v1H3zM11 10h1v1H11zM13 10h1v1H13zM15 10h1v1H15zM17 10h1v1H17zM20 10h3v1H20zM24 10h2v1H24zM29 10h3v1H29zM33 10h1v1H33zM35 10h5v1H35zM0 11h2v1H0zM3 11h1v1H3zM9 11h2v1H9zM21 11h1v1H21zM23 11h1v1H23zM25 11h4v1H25zM33 11h1v1H33zM35 11h2v1H35zM38 11h1v1H38zM40,11 h1v1H40zM2 12h2v1H2zM5 12h2v1H5zM8 12h1v1H8zM11 12h7v1H11zM19 12h2v1H19zM22 12h1v1H22zM25 12h2v1H25zM28 12h8v1H28zM37 12h1v1H37zM40,12 h1v1H40zM2 13h1v1H2zM4 13h2v1H4zM8 13h2v1H8zM11 13h1v1H11zM13 13h1v1H13zM15 13h1v1H15zM19 13h1v1H19zM23 13h1v1H23zM25 13h3v1H25zM29 13h2v1H29zM35 13h1v1H35zM37 13h1v1H37zM39 13h1v1H39zM4 14h3v1H4zM8 14h1v1H8zM11 14h1v1H11zM13 14h4v1H13zM18 14h4v1H18zM23 14h1v1H23zM27 14h4v1H27zM32 14h1v1H32zM34 14h1v1H34zM36 14h1v1H36zM39,14 h2v1H39zM0 15h1v1H0zM2 15h1v1H2zM5 15h1v1H5zM7 15h1v1H7zM10 15h1v1H10zM13 15h1v1H13zM18 15h1v1H18zM22 15h2v1H22zM25 15h2v1H25zM28 15h2v1H28zM31 15h2v1H31zM34 15h1v1H34zM37 15h1v1H37zM39 15h1v1H39zM0 16h3v1H0zM4 16h9v1H4zM14 16h3v1H14zM18 16h1v1H18zM20 16h3v1H20zM24 16h1v1H24zM26 16h6v1H26zM35 16h1v1H35zM40,16 h1v1H40zM0 17h1v1H0zM3 17h1v1H3zM5 17h1v1H5zM7 17h2v1H7zM10 17h5v1H10zM19 17h2v1H19zM23 17h2v1H23zM30 17h1v1H30zM32 17h1v1H32zM34 17h2v1H34zM37,17 h4v1H37zM5 18h4v1H5zM11 18h1v1H11zM13 18h3v1H13zM17 18h1v1H17zM19 18h1v1H19zM25 18h1v1H25zM28 18h1v1H28zM30 18h1v1H30zM32 18h3v1H32zM36 18h1v1H36zM39,18 h2v1H39zM2 19h2v1H2zM9 19h3v1H9zM13 19h3v1H13zM18 19h2v1H18zM21 19h2v1H21zM24 19h2v1H24zM29 19h3v1H29zM34 19h2v1H34zM37 19h1v1H37zM39 19h1v1H39zM0 20h4v1H0zM6 20h2v1H6zM9 20h1v1H9zM14 20h1v1H14zM19 20h3v1H19zM24 20h1v1H24zM26 20h1v1H26zM28 20h3v1H28zM34 20h1v1H34zM38 20h1v1H38zM40,20 h1v1H40zM1 21h1v1H1zM3 21h3v1H3zM9 21h1v1H9zM11 21h4v1H11zM16 21h1v1H16zM21 21h1v1H21zM30 21h1v1H30zM34 21h1v1H34zM37 21h1v1H37zM39,21 h2v1H39zM0 22h1v1H0zM3 22h1v1H3zM5 22h3v1H5zM10 22h2v1H10zM15 22h2v1H15zM22 22h1v1H22zM24 22h1v1H24zM28 22h1v1H28zM30 22h3v1H30zM35 22h2v1H35zM38 22h2v1H38zM1 23h2v1H1zM4 23h1v1H4zM7 23h5v1H7zM15 23h1v1H15zM17 23h2v1H17zM20 23h4v1H20zM25 23h2v1H25zM30 23h1v1H30zM33 23h4v1H33zM38 23h2v1H38zM1 24h2v1H1zM4 24h1v1H4zM6 24h2v1H6zM11 24h3v1H11zM16 24h1v1H16zM20 24h1v1H20zM22 24h1v1H22zM24 24h2v1H24zM29 24h1v1H29zM32 24h1v1H32zM34 24h1v1H34zM37 24h2v1H37zM40,24 h1v1H40zM0 25h1v1H0zM3 25h3v1H3zM7 25h3v1H7zM13 25h1v1H13zM17 25h1v1H17zM19 25h1v1H19zM21 25h2v1H21zM26 25h1v1H26zM29 25h1v1H29zM31 25h1v1H31zM35 25h1v1H35zM37 25h1v1H37zM0 26h3v1H0zM4 26h4v1H4zM10 26h1v1H10zM12 26h2v1H12zM15 26h2v1H15zM18 26h8v1H18zM28 26h1v1H28zM32 26h1v1H32zM34 26h2v1H34zM39,26 h2v1H39zM0 27h1v1H0zM3 27h2v1H3zM8 27h1v1H8zM10 27h2v1H10zM13 27h2v1H13zM19 27h1v1H19zM21 27h1v1H21zM25 27h1v1H25zM27 27h3v1H27zM32 27h4v1H32zM0 28h4v1H0zM6 28h1v1H6zM13 28h1v1H13zM16 28h1v1H16zM19 28h2v1H19zM23 28h2v1H23zM26 28h1v1H26zM28 28h3v1H28zM32 28h2v1H32zM40,28 h1v1H40zM4 29h1v1H4zM8 29h2v1H8zM12 29h2v1H12zM15 29h2v1H15zM18 29h1v1H18zM24 29h2v1H24zM27 29h1v1H27zM30 29h1v1H30zM34 29h2v1H34zM37 29h2v1H37zM40,29 h1v1H40zM0 30h1v1H0zM4 30h3v1H4zM8 30h3v1H8zM13 30h1v1H13zM17 30h1v1H17zM20 30h2v1H20zM23 30h2v1H23zM26 30h1v1H26zM30 30h1v1H30zM35 30h4v1H35zM40,30 h1v1H40zM3 31h1v1H3zM5 31h1v1H5zM8 31h1v1H8zM11 31h1v1H11zM15 31h1v1H15zM24 31h1v1H24zM27 31h3v1H27zM32 31h2v1H32zM40,31 h1v1H40zM0 32h1v1H0zM4 32h4v1H4zM9 32h1v1H9zM11 32h3v1H11zM17 32h1v1H17zM22 32h1v1H22zM25 32h2v1H25zM28 32h1v1H28zM32 32h8v1H32zM8 33h1v1H8zM10 33h1v1H10zM15 33h1v1H15zM18 33h1v1H18zM21 33h1v1H21zM25 33h1v1H25zM28 33h1v1H28zM31 33h2v1H31zM36 33h2v1H36zM40,33 h1v1H40zM0 34h7v1H0zM8 34h2v1H8zM13 34h3v1H13zM17 34h1v1H17zM21 34h1v1H21zM24 34h3v1H24zM29 34h1v1H29zM32 34h1v1H32zM34 34h1v1H34zM36 34h1v1H36zM0 35h1v1H0zM6 35h1v1H6zM8 35h4v1H8zM13 35h2v1H13zM18 35h1v1H18zM20 35h1v1H20zM22 35h2v1H22zM25 35h1v1H25zM28 35h2v1H28zM32 35h1v1H32zM36 35h3v1H36zM40,35 h1v1H40zM0 36h1v1H0zM2 36h3v1H2zM6 36h1v1H6zM10 36h2v1H10zM13 36h1v1H13zM15 36h1v1H15zM19 36h3v1H19zM24 36h1v1H24zM26 36h1v1H26zM28 36h1v1H28zM32 36h6v1H32zM39 36h1v1H39zM0 37h1v1H0zM2 37h3v1H2zM6 37h1v1H6zM8 37h1v1H8zM10 37h2v1H10zM15 37h7v1H15zM24 37h1v1H24zM26 37h1v1H26zM31 37h4v1H31zM36 37h1v1H36zM39,37 h2v1H39zM0 38h1v1H0zM2 38h3v1H2zM6 38h1v1H6zM9 38h4v1H9zM16 38h2v1H16zM19 38h2v1H19zM22 38h3v1H22zM26 38h1v1H26zM28 38h1v1H28zM31 38h1v1H31zM36 38h1v1H36zM38,38 h3v1H38zM0 39h1v1H0zM6 39h1v1H6zM8 39h1v1H8zM10 39h1v1H10zM12 39h1v1H12zM17 39h4v1H17zM22 39h2v1H22zM25 39h2v1H25zM29 39h2v1H29zM32 39h1v1H32zM35 39h1v1H35zM37 39h1v1H37zM39 39h1v1H39zM0 40h7v1H0zM11 40h1v1H11zM13 40h1v1H13zM17 40h1v1H17zM19 40h5v1H19zM28 40h2v1H28zM31 40h6v1H31zM39 40h1v1H39z"></path><!----></svg>